# OBJ generated by ONSHAPE BY PTC INC, 1.206 Units = meters
mtllib Thorn.mtl
g Part 3
v 0.0433013 -8.1566e-19 0.00669873 
v 0.0457504 -0.00540595 0.00965554 
v 0.0476632 -0.0107485 0.0130854 
v 0.0490171 -0.0159651 0.016948 
v 0.0497964 -0.0209945 0.0211981 
v 0.0499919 -0.0257777 0.0257858 
v 0.0496012 -0.0302587 0.0306575 
v 0.048629 -0.034385 0.035756 
v 0.0470867 -0.0381081 0.0410214 
v 0.0449923 -0.0413844 0.0463921 
v 0.0423705 -0.0441756 0.0518051 
v 0.0392519 -0.0464488 0.057197 
v 0.0356731 -0.0481775 0.0625044 
v 0.031676 -0.0493413 0.0676653 
v 0.0273076 -0.0499267 0.0726191 
v 0.0226191 -0.0499267 0.0773076 
v 0.0176653 -0.0493413 0.081676 
v 0.0125044 -0.0481775 0.0856731 
v 0.00719697 -0.0464488 0.0892519 
v 0.00180512 -0.0441756 0.0923705 
v -0.00360789 -0.0413844 0.0949923 
v -0.0089786 -0.0381081 0.0970867 
v -0.014244 -0.034385 0.098629 
v -0.0193425 -0.0302587 0.0996012 
v -0.0242142 -0.0257777 0.0999919 
v -0.0288019 -0.0209945 0.0997964 
v -0.033052 -0.0159651 0.0990171 
v -0.0369146 -0.0107485 0.0976632 
v -0.0403445 -0.00540595 0.0957504 
v -0.0433013 -1.91854e-17 0.0933013 
v -0.0457504 0.00540595 0.0903445 
v -0.0476632 0.0107485 0.0869146 
v -0.0490171 0.0159651 0.083052 
v -0.0497964 0.0209945 0.0788019 
v -0.0499919 0.0257777 0.0742142 
v -0.0496012 0.0302587 0.0693425 
v -0.048629 0.034385 0.064244 
v -0.0470867 0.0381081 0.0589786 
v -0.0449923 0.0413844 0.0536079 
v -0.0423705 0.0441756 0.0481949 
v -0.0392519 0.0464488 0.042803 
v -0.0356731 0.0481775 0.0374956 
v -0.031676 0.0493413 0.0323347 
v -0.0273076 0.0499267 0.0273809 
v -0.0226191 0.0499267 0.0226924 
v -0.0176653 0.0493413 0.018324 
v -0.0125044 0.0481775 0.0143269 
v -0.00719697 0.0464488 0.0107481 
v -0.00180512 0.0441756 0.00762952 
v 0.00360789 0.0413844 0.00500766 
v 0.0089786 0.0381081 0.0029133 
v 0.014244 0.034385 0.00137099 
v 0.0193425 0.0302587 0.000398804 
v 0.0242142 0.0257777 8.14947e-06 
v 0.0288019 0.0209945 0.000203604 
v 0.033052 0.0159651 0.000982876 
v 0.0369146 0.0107485 0.00233683 
v 0.0403445 0.00540595 0.00424959 
v -0.05 -0.05 -3.46945e-17 
v 0.05 0.05 0.1 
vn 0.244017 -0.333333 -0.910684 
vn 0.276672 -0.405413 -0.871259 
vn 0.261217 -0.369426 -0.891791 
vn 0.302176 -0.476647 -0.825529 
vn 0.290339 -0.441188 -0.849151 
vn 0.320228 -0.546201 -0.774027 
vn 0.312149 -0.511686 -0.800463 
vn 0.330619 -0.613259 -0.717359 
vn 0.326391 -0.580092 -0.746299 
vn 0.333225 -0.677036 -0.656189 
vn 0.332899 -0.645606 -0.687293 
vn 0.328016 -0.736783 -0.591233 
vn 0.331595 -0.707458 -0.624137 
vn 0.315054 -0.7918 -0.523254 
vn 0.322497 -0.764924 -0.557572 
vn 0.294489 -0.841441 -0.453048 
vn 0.305709 -0.81733 -0.488378 
vn 0.266565 -0.885126 -0.381439 
vn 0.281429 -0.864062 -0.417366 
vn 0.231606 -0.922341 -0.309265 
vn 0.249941 -0.904571 -0.345369 
vn 0.190025 -0.952651 -0.237374 
vn 0.211615 -0.938384 -0.273231 
vn 0.142308 -0.9757 -0.166608 
vn 0.1669 -0.965102 -0.201798 
vn 0.0890137 -0.991218 -0.097796 
vn 0.11632 -0.984414 -0.131906 
vn 0.0307683 -0.999022 -0.031746 
vn 0.0604685 -0.996092 -0.0643766 
vn -0.031746 -0.999022 0.0307683 
vn -1.51623e-15 -1 7.47045e-16 
vn -0.097796 -0.991218 0.0890137 
vn -0.0643766 -0.996092 0.0604685 
vn -0.166608 -0.9757 0.142308 
vn -0.131906 -0.984414 0.11632 
vn -0.237374 -0.952651 0.190025 
vn -0.201798 -0.965102 0.1669 
vn -0.309265 -0.922341 0.231606 
vn -0.273231 -0.938384 0.211615 
vn -0.381439 -0.885126 0.266565 
vn -0.345369 -0.904571 0.249941 
vn -0.453048 -0.841441 0.294489 
vn -0.417366 -0.864062 0.281429 
vn -0.523254 -0.7918 0.315054 
vn -0.488378 -0.81733 0.305709 
vn -0.591233 -0.736783 0.328016 
vn -0.557572 -0.764924 0.322497 
vn -0.656189 -0.677036 0.333225 
vn -0.624137 -0.707458 0.331595 
vn -0.717359 -0.613259 0.330619 
vn -0.687293 -0.645606 0.332899 
vn -0.774027 -0.546201 0.320228 
vn -0.746299 -0.580092 0.326391 
vn -0.825529 -0.476647 0.302176 
vn -0.800463 -0.511686 0.312149 
vn -0.871259 -0.405413 0.276672 
vn -0.849151 -0.441188 0.290339 
vn -0.910684 -0.333333 0.244017 
vn -0.891791 -0.369426 0.261217 
vn -0.943339 -0.261254 0.204593 
vn -0.927883 -0.297241 0.225124 
vn -0.968842 -0.19002 0.158862 
vn -0.957005 -0.225479 0.182484 
vn -0.986895 -0.120466 0.107361 
vn -0.978815 -0.154981 0.133796 
vn -0.997285 -0.0534073 0.0506925 
vn -0.993058 -0.0865746 0.0796322 
vn -0.999891 0.0103692 -0.0104779 
vn -0.999565 -0.021061 0.0206264 
vn -0.994683 0.0701161 -0.0754335 
vn -0.998262 0.0407914 -0.0425292 
vn -0.98172 0.125133 -0.143413 
vn -0.989163 0.0982575 -0.109094 
vn -0.961156 0.174775 -0.213619 
vn -0.972375 0.150664 -0.178288 
vn -0.933231 0.218459 -0.285228 
vn -0.948095 0.197395 -0.2493 
vn -0.898273 0.255675 -0.357402 
vn -0.916608 0.237905 -0.321297 
vn -0.856692 0.285984 -0.429293 
vn -0.878282 0.271717 -0.393435 
vn -0.808974 0.309033 -0.500059 
vn -0.833567 0.298435 -0.464869 
vn -0.75568 0.324551 -0.568871 
vn -0.782987 0.317747 -0.53476 
vn -0.697435 0.332356 -0.634921 
vn -0.727135 0.329425 -0.60229 
vn -0.634921 0.332356 -0.697435 
vn -0.666667 0.333333 -0.666667 
vn -0.568871 0.324551 -0.75568 
vn -0.60229 0.329425 -0.727135 
vn -0.500059 0.309033 -0.808974 
vn -0.53476 0.317747 -0.782987 
vn -0.429293 0.285984 -0.856692 
vn -0.464869 0.298435 -0.833567 
vn -0.357402 0.255675 -0.898273 
vn -0.393435 0.271717 -0.878282 
vn -0.285228 0.218459 -0.933231 
vn -0.321297 0.237905 -0.916608 
vn -0.213619 0.174775 -0.961156 
vn -0.2493 0.197395 -0.948095 
vn -0.143413 0.125133 -0.98172 
vn -0.178288 0.150664 -0.972375 
vn -0.0754335 0.0701161 -0.994683 
vn -0.109094 0.0982575 -0.989163 
vn -0.0104779 0.0103692 -0.999891 
vn -0.0425292 0.0407914 -0.998262 
vn 0.0506925 -0.0534073 -0.997285 
vn 0.0206264 -0.021061 -0.999565 
vn 0.107361 -0.120466 -0.986895 
vn 0.0796322 -0.0865746 -0.993058 
vn 0.158862 -0.19002 -0.968842 
vn 0.133796 -0.154981 -0.978815 
vn 0.204593 -0.261254 -0.943339 
vn 0.182484 -0.225479 -0.957005 
vn 0.225124 -0.297241 -0.927883 
vn -0.244017 0.333333 0.910684 
vn -0.204593 0.261254 0.943339 
vn -0.225124 0.297241 0.927883 
vn -0.158862 0.19002 0.968842 
vn -0.182484 0.225479 0.957005 
vn -0.107361 0.120466 0.986895 
vn -0.133796 0.154981 0.978815 
vn -0.0506925 0.0534073 0.997285 
vn -0.0796322 0.0865746 0.993058 
vn 0.0104779 -0.0103692 0.999891 
vn -0.0206264 0.021061 0.999565 
vn 0.0754335 -0.0701161 0.994683 
vn 0.0425292 -0.0407914 0.998262 
vn 0.143413 -0.125133 0.98172 
vn 0.109094 -0.0982575 0.989163 
vn 0.213619 -0.174775 0.961156 
vn 0.178288 -0.150664 0.972375 
vn 0.285228 -0.218459 0.933231 
vn 0.2493 -0.197395 0.948095 
vn 0.357402 -0.255675 0.898273 
vn 0.321297 -0.237905 0.916608 
vn 0.429293 -0.285984 0.856692 
vn 0.393435 -0.271717 0.878282 
vn 0.500059 -0.309033 0.808974 
vn 0.464869 -0.298435 0.833567 
vn 0.568871 -0.324551 0.75568 
vn 0.53476 -0.317747 0.782987 
vn 0.634921 -0.332356 0.697435 
vn 0.60229 -0.329425 0.727135 
vn 0.697435 -0.332356 0.634921 
vn 0.666667 -0.333333 0.666667 
vn 0.75568 -0.324551 0.568871 
vn 0.727135 -0.329425 0.60229 
vn 0.808974 -0.309033 0.500059 
vn 0.782987 -0.317747 0.53476 
vn 0.856692 -0.285984 0.429293 
vn 0.833567 -0.298435 0.464869 
vn 0.898273 -0.255675 0.357402 
vn 0.878282 -0.271717 0.393435 
vn 0.933231 -0.218459 0.285228 
vn 0.916608 -0.237905 0.321297 
vn 0.961156 -0.174775 0.213619 
vn 0.948095 -0.197395 0.2493 
vn 0.98172 -0.125133 0.143413 
vn 0.972375 -0.150664 0.178288 
vn 0.994683 -0.0701161 0.0754335 
vn 0.989163 -0.0982575 0.109094 
vn 0.999891 -0.0103692 0.0104779 
vn 0.998262 -0.0407914 0.0425292 
vn 0.997285 0.0534073 -0.0506925 
vn 0.999565 0.021061 -0.0206264 
vn 0.986895 0.120466 -0.107361 
vn 0.993058 0.0865746 -0.0796322 
vn 0.968842 0.19002 -0.158862 
vn 0.978815 0.154981 -0.133796 
vn 0.943339 0.261254 -0.204593 
vn 0.957005 0.225479 -0.182484 
vn 0.910684 0.333333 -0.244017 
vn 0.927883 0.297241 -0.225124 
vn 0.871259 0.405413 -0.276672 
vn 0.891791 0.369426 -0.261217 
vn 0.825529 0.476647 -0.302176 
vn 0.849151 0.441188 -0.290339 
vn 0.774027 0.546201 -0.320228 
vn 0.800463 0.511686 -0.312149 
vn 0.717359 0.613259 -0.330619 
vn 0.746299 0.580092 -0.326391 
vn 0.656189 0.677036 -0.333225 
vn 0.687293 0.645606 -0.332899 
vn 0.591233 0.736783 -0.328016 
vn 0.624137 0.707458 -0.331595 
vn 0.523254 0.7918 -0.315054 
vn 0.557572 0.764924 -0.322497 
vn 0.453048 0.841441 -0.294489 
vn 0.488378 0.81733 -0.305709 
vn 0.381439 0.885126 -0.266565 
vn 0.417366 0.864062 -0.281429 
vn 0.309265 0.922341 -0.231606 
vn 0.345369 0.904571 -0.249941 
vn 0.237374 0.952651 -0.190025 
vn 0.273231 0.938384 -0.211615 
vn 0.166608 0.9757 -0.142308 
vn 0.201798 0.965102 -0.1669 
vn 0.097796 0.991218 -0.0890137 
vn 0.131906 0.984414 -0.11632 
vn 0.031746 0.999022 -0.0307683 
vn 0.0643766 0.996092 -0.0604685 
vn -0.0307683 0.999022 0.031746 
vn 6.05635e-16 1 1.6355e-16 
vn -0.0890137 0.991218 0.097796 
vn -0.0604685 0.996092 0.0643766 
vn -0.142308 0.9757 0.166608 
vn -0.11632 0.984414 0.131906 
vn -0.190025 0.952651 0.237374 
vn -0.1669 0.965102 0.201798 
vn -0.231606 0.922341 0.309265 
vn -0.211615 0.938384 0.273231 
vn -0.266565 0.885126 0.381439 
vn -0.249941 0.904571 0.345369 
vn -0.294489 0.841441 0.453048 
vn -0.281429 0.864062 0.417366 
vn -0.315054 0.7918 0.523254 
vn -0.305709 0.81733 0.488378 
vn -0.328016 0.736783 0.591233 
vn -0.322497 0.764924 0.557572 
vn -0.333225 0.677036 0.656189 
vn -0.331595 0.707458 0.624137 
vn -0.330619 0.613259 0.717359 
vn -0.332899 0.645606 0.687293 
vn -0.320228 0.546201 0.774027 
vn -0.326391 0.580092 0.746299 
vn -0.302176 0.476647 0.825529 
vn -0.312149 0.511686 0.800463 
vn -0.276672 0.405413 0.871259 
vn -0.290339 0.441188 0.849151 
vn -0.261217 0.369426 0.891791 
usemtl 0.647059_0.647059_0.647059_0.000000_0.000000
o mesh0
f 1//1 2//2 59//3 
f 2//2 3//4 59//5 
f 3//4 4//6 59//7 
f 4//6 5//8 59//9 
f 5//8 6//10 59//11 
f 6//10 7//12 59//13 
f 7//12 8//14 59//15 
f 8//14 9//16 59//17 
f 9//16 10//18 59//19 
f 10//18 11//20 59//21 
f 11//20 12//22 59//23 
f 12//22 13//24 59//25 
f 13//24 14//26 59//27 
f 14//26 15//28 59//29 
f 15//28 16//30 59//31 
f 16//30 17//32 59//33 
f 17//32 18//34 59//35 
f 18//34 19//36 59//37 
f 19//36 20//38 59//39 
f 20//38 21//40 59//41 
f 21//40 22//42 59//43 
f 22//42 23//44 59//45 
f 23//44 24//46 59//47 
f 24//46 25//48 59//49 
f 25//48 26//50 59//51 
f 26//50 27//52 59//53 
f 27//52 28//54 59//55 
f 28//54 29//56 59//57 
f 29//56 30//58 59//59 
f 30//58 31//60 59//61 
f 31//60 32//62 59//63 
f 32//62 33//64 59//65 
f 33//64 34//66 59//67 
f 34//66 35//68 59//69 
f 35//68 36//70 59//71 
f 36//70 37//72 59//73 
f 37//72 38//74 59//75 
f 38//74 39//76 59//77 
f 39//76 40//78 59//79 
f 40//78 41//80 59//81 
f 41//80 42//82 59//83 
f 42//82 43//84 59//85 
f 43//84 44//86 59//87 
f 44//86 45//88 59//89 
f 45//88 46//90 59//91 
f 46//90 47//92 59//93 
f 47//92 48//94 59//95 
f 48//94 49//96 59//97 
f 49//96 50//98 59//99 
f 50//98 51//100 59//101 
f 51//100 52//102 59//103 
f 52//102 53//104 59//105 
f 53//104 54//106 59//107 
f 54//106 55//108 59//109 
f 55//108 56//110 59//111 
f 56//110 57//112 59//113 
f 57//112 58//114 59//115 
f 58//114 1//1 59//116 
o mesh1
f 30//117 29//118 60//119 
f 29//118 28//120 60//121 
f 28//120 27//122 60//123 
f 27//122 26//124 60//125 
f 26//124 25//126 60//127 
f 25//126 24//128 60//129 
f 24//128 23//130 60//131 
f 23//130 22//132 60//133 
f 22//132 21//134 60//135 
f 21//134 20//136 60//137 
f 20//136 19//138 60//139 
f 19//138 18//140 60//141 
f 18//140 17//142 60//143 
f 17//142 16//144 60//145 
f 16//144 15//146 60//147 
f 15//146 14//148 60//149 
f 14//148 13//150 60//151 
f 13//150 12//152 60//153 
f 12//152 11//154 60//155 
f 11//154 10//156 60//157 
f 10//156 9//158 60//159 
f 9//158 8//160 60//161 
f 8//160 7//162 60//163 
f 7//162 6//164 60//165 
f 6//164 5//166 60//167 
f 5//166 4//168 60//169 
f 4//168 3//170 60//171 
f 3//170 2//172 60//173 
f 2//172 1//174 60//175 
f 1//174 58//176 60//177 
f 58//176 57//178 60//179 
f 57//178 56//180 60//181 
f 56//180 55//182 60//183 
f 55//182 54//184 60//185 
f 54//184 53//186 60//187 
f 53//186 52//188 60//189 
f 52//188 51//190 60//191 
f 51//190 50//192 60//193 
f 50//192 49//194 60//195 
f 49//194 48//196 60//197 
f 48//196 47//198 60//199 
f 47//198 46//200 60//201 
f 46//200 45//202 60//203 
f 45//202 44//204 60//205 
f 44//204 43//206 60//207 
f 43//206 42//208 60//209 
f 42//208 41//210 60//211 
f 41//210 40//212 60//213 
f 40//212 39//214 60//215 
f 39//214 38//216 60//217 
f 38//216 37//218 60//219 
f 37//218 36//220 60//221 
f 36//220 35//222 60//223 
f 35//222 34//224 60//225 
f 34//224 33//226 60//227 
f 33//226 32//228 60//229 
f 32//228 31//230 60//231 
f 31//230 30//117 60//232 
